<svg width="321" height="321" viewBox="0 0 321 321" fill="none" xmlns="http://www.w3.org/2000/svg">
<g clip-path="url(#clip0)">
<rect width="321" height="321" fill="#111111"/>
<g opacity="0.01">
<line x1="37.1421" y1="80.4264" x2="65.4264" y2="52.1421" stroke="white" stroke-width="8"/>
<line x1="65.4264" y1="80.4264" x2="37.1421" y2="52.1421" stroke="white" stroke-width="8"/>
</g>
<g opacity="0.01">
<line x1="200.181" y1="143.181" x2="228.466" y2="171.466" stroke="white" stroke-width="8"/>
<line x1="200.181" y1="171.466" x2="228.466" y2="143.181" stroke="white" stroke-width="8"/>
</g>
<g opacity="0.01">
<line x1="214.142" y1="281.142" x2="242.426" y2="309.426" stroke="white" stroke-width="8"/>
<line x1="214.142" y1="309.426" x2="242.426" y2="281.142" stroke="white" stroke-width="8"/>
</g>
<g opacity="0.01">
<line x1="189.142" y1="15.1421" x2="217.426" y2="43.4264" stroke="white" stroke-width="8"/>
<line x1="189.142" y1="43.4264" x2="217.426" y2="15.1421" stroke="white" stroke-width="8"/>
</g>
<g opacity="0.01">
<line x1="273.142" y1="92.1421" x2="301.426" y2="120.426" stroke="white" stroke-width="8"/>
<line x1="273.142" y1="120.426" x2="301.426" y2="92.1421" stroke="white" stroke-width="8"/>
</g>
<circle opacity="0.01" cx="127" cy="247" r="16" stroke="white" stroke-width="8"/>
<circle opacity="0.01" cx="31" cy="294" r="16" stroke="white" stroke-width="8"/>
<circle opacity="0.01" cx="274" cy="224" r="16" stroke="white" stroke-width="8"/>
<circle opacity="0.01" cx="141" cy="89" r="16" stroke="white" stroke-width="8"/>
<circle opacity="0.01" cx="71" cy="165" r="16" stroke="white" stroke-width="8"/>
</g>
<defs>
<clipPath id="clip0">
<rect width="321" height="321" fill="white"/>
</clipPath>
</defs>
</svg>
